<svg width="8" height="15" viewBox="0 0 8 15" fill="none" xmlns="http://www.w3.org/2000/svg">
<rect width="8" height="15" fill="#F5F5F5"/>
<g id="&#208;&#157;&#208;&#190;&#208;&#188;&#208;&#181;&#209;&#128;">
<g clip-path="url(#clip0_0_1)">
<rect x="-224" y="-494" width="441" height="812" rx="40" fill="#F6F6F9"/>
<g id="1">
<rect x="-191" y="-385" width="375" height="539" rx="12" fill="white"/>
<g id="Frame 7">
<rect x="-175" y="-7" width="192" height="29" rx="5" fill="#0D72FF" fill-opacity="0.1"/>
<g id="Icons/Icons/Icons">
<path id="Vector 55" d="M1 1.5L7 7.5L1 13.5" stroke="#0D72FF" stroke-width="2" stroke-linecap="round" stroke-linejoin="round"/>
</g>
</g>
</g>
</g>
</g>
<path id="Vector 61" d="M1296.53 265C1296.53 270.891 1301.3 275.667 1307.19 275.667C1313.08 275.667 1317.86 270.891 1317.86 265C1317.86 259.109 1313.08 254.333 1307.19 254.333C1301.3 254.333 1296.53 259.109 1296.53 265ZM1511 265V267H1513V265H1511ZM1511 -786H1513V-788H1511V-786ZM-577 -786V-788H-579V-786H-577ZM-578.414 -703.547C-577.633 -702.766 -576.367 -702.766 -575.586 -703.547L-562.858 -716.275C-562.077 -717.056 -562.077 -718.323 -562.858 -719.104C-563.639 -719.885 -564.905 -719.885 -565.686 -719.104L-577 -707.79L-588.314 -719.104C-589.095 -719.885 -590.361 -719.885 -591.142 -719.104C-591.923 -718.323 -591.923 -717.056 -591.142 -716.275L-578.414 -703.547ZM1307.19 267H1511V263H1307.19V267ZM1513 265V-786H1509V265H1513ZM1511 -788H-577V-784H1511V-788ZM-579 -786V-704.961H-575V-786H-579Z" fill="black"/>
<defs>
<clipPath id="clip0_0_1">
<rect x="-224" y="-494" width="441" height="812" rx="40" fill="white"/>
</clipPath>
</defs>
</svg>
